<svg width="320" height="1209" viewBox="0 0 320 1209" fill="none" xmlns="http://www.w3.org/2000/svg">
<path d="M473 -221.767H0V93.233H473V-221.767Z" fill="url(#paint0_radial_2_79)"/>
<g style="mix-blend-mode:multiply">
<path d="M126.898 -254.406C158.249 -241.926 177.844 -192.423 175.212 -137.095C172.58 -81.767 187.363 -7.30501 262.602 1.84799C337.841 11.001 461.002 7.67199 497.283 127.063" stroke="#0C8040" stroke-width="11" stroke-miterlimit="10"/>
</g>
<path d="M126.898 -254.406C158.249 -241.926 177.844 -192.423 175.212 -137.095C172.58 -81.767 187.361 -7.30402 262.602 1.84799C279.716 3.92999 320.059 7.784 320.059 7.784C320.059 7.784 402.797 20.622 437.883 44.137C463.748 61.471 485.274 87.544 497.283 127.063H-31.645V-254.406H126.898Z" fill="#0C8040"/>
<g style="mix-blend-mode:multiply">
<path d="M450.258 127.063C445.933 95.651 423.799 57.187 379.78 31.971C346.227 12.75 316.425 14.877 297.851 33.471C283.588 47.746 244.969 57.526 220.501 33.471C187.678 1.20301 216.472 -52.644 204.469 -74.229C186.304 -106.896 139.844 -89.186 116.945 -126.795C94.046 -164.404 77.306 -244.039 -31.645 -247.75" stroke="#668B26" stroke-width="11" stroke-miterlimit="10"/>
</g>
<path d="M450.258 127.063C445.933 95.651 423.799 57.187 379.78 31.971C346.227 12.75 316.425 14.877 297.851 33.471C283.588 47.746 244.969 57.526 220.501 33.471C187.678 1.203 216.472 -52.644 204.469 -74.229C186.304 -106.896 139.844 -89.186 116.945 -126.795C94.046 -164.404 77.306 -244.039 -31.645 -247.75V127.063H450.258Z" fill="#7DCD4F"/>
<path d="M-34.645 -163.846C12.68 -169.402 79.341 -158.718 114.964 -101.021C150.264 -43.852 112.164 11.279 177.046 37.024C218.618 53.524 325.639 30.185 379.07 125.064L382.681 149.281L-34.645 125.063V-163.846Z" fill="#9FCD4F"/>
<g style="mix-blend-mode:multiply">
<path d="M-3.21198 -112.813C19.0546 -111.669 40.6525 -104.816 59.505 -92.913C97.012 -68.891 106.639 -37.687 115.948 -7.51299C117.927 -1.09998 119.796 4.95802 121.938 10.987C133.773 44.281 171.604 52.13 209.338 57.314C235.566 60.919 257.996 70.414 276.005 85.535C289.721 97.055 300.318 111.788 305.076 125.955L298.504 128.162C294.14 115.162 284.314 101.562 271.547 90.843C254.554 76.575 233.306 67.604 208.393 64.181C168.547 58.705 128.546 50.267 115.407 13.307C113.215 7.14099 111.238 0.730011 109.325 -5.46999C100.382 -34.455 91.1351 -64.426 55.7661 -87.08C13.8461 -113.928 -30.441 -104.426 -30.881 -104.329L-32.41 -111.09C-31.924 -111.195 -20.355 -113.755 -3.21198 -112.813Z" fill="#A5C7A1"/>
</g>
<path d="M312.091 127.166C303.982 119.332 276.105 69.68 219.167 61.854C178.593 56.279 141.274 47.854 128.975 13.254C116.676 -21.346 94.068 -36.067 93.534 -37.4C55.134 -60.067 0.0410156 -58.2 0.0410156 -58.2V138.166C0.0410156 138.166 317.521 134.799 319.761 135.12C322.001 135.441 320.203 135 312.091 127.166Z" fill="#F7F7F7"/>
<path d="M0 1236V797.708H0.0849609V481.159L0 134L320.6 134.208C320.6 134.208 320.309 226.791 319.9 797.708H320V1236H0Z" fill="#F7F7F7"/>
<defs>
<radialGradient id="paint0_radial_2_79" cx="0" cy="0" r="1" gradientUnits="userSpaceOnUse" gradientTransform="translate(-293.571 -176.407) rotate(180) scale(342.939 342.405)">
<stop stop-color="#54C937"/>
<stop offset="0.43" stop-color="#47B937"/>
<stop offset="1" stop-color="#3AA837"/>
</radialGradient>
</defs>
</svg>
