<svg width="19" height="20" viewBox="0 0 19 20" fill="none" xmlns="http://www.w3.org/2000/svg">
<path d="M1.22895 5.939C1.22895 5.939 0.617947 6.08799 0.837947 5.46899C1.30725 4.39944 1.98748 3.43555 2.83795 2.63499C3.75395 1.82899 3.77695 1.75 4.66195 1.625C5.90686 1.29803 7.17288 1.05746 8.45095 0.904999C9.48677 1.03735 10.4823 1.38955 11.371 1.938C11.809 2.345 11.481 2.72101 11.4019 2.72101C11.3229 2.72101 11.214 2.99501 11.966 3.84801C12.718 4.70101 13.297 5.148 13.759 5.782C14.8797 7.55751 15.8086 9.44714 16.5299 11.419C17.6299 14.292 17.712 14.48 17.681 16.445L17.626 18.097C17.626 18.097 18.2989 18.833 17.4259 18.856C16.5529 18.879 8.22595 19.185 8.22595 19.185C6.67208 19.1673 5.1212 19.0444 3.58395 18.817C3.58395 18.817 1.71295 19.083 2.27695 18.449C2.27695 18.449 2.53495 18.149 2.66895 18.128C2.80295 18.107 1.80795 16.085 1.55695 14.636C1.30595 13.187 2.56695 9.39799 2.56695 9.39799C2.97212 8.10244 3.21136 6.76075 3.27895 5.405C3.27895 5.405 1.83195 5.837 1.22895 5.939Z" fill="#9A9A9A" stroke="#9A9A9A" stroke-miterlimit="10"/>
</svg>
