<svg xmlns="http://www.w3.org/2000/svg" width="18.09" height="19.283" viewBox="0 0 18.09 19.283">
  <path id="Path_19827" data-name="Path 19827" d="M115.328,210.316s-.611.149-.391-.47a8.684,8.684,0,0,1,2-2.834c.916-.806.939-.885,1.824-1.01a27.946,27.946,0,0,1,3.789-.72,7.328,7.328,0,0,1,2.92,1.033c.438.407.11.783.031.783s-.188.274.564,1.127,1.331,1.3,1.793,1.934a29.631,29.631,0,0,1,2.771,5.637c1.1,2.873,1.182,3.061,1.151,5.026l-.055,1.652s.673.736-.2.759-9.2.329-9.2.329a34.407,34.407,0,0,1-4.642-.368s-1.871.266-1.307-.368c0,0,.258-.3.392-.321s-.861-2.043-1.112-3.492,1.01-5.238,1.01-5.238a16.056,16.056,0,0,0,.712-3.993S115.931,210.214,115.328,210.316Z" transform="translate(-114.39 -204.779)" fill="#9a9a9a" stroke="#9a9a9a" stroke-miterlimit="10" stroke-width="1"/>
</svg>
