<svg xmlns="http://www.w3.org/2000/svg" width="19.874" height="15.567" viewBox="0 0 19.874 15.567">
  <g id="_367413" data-name="367413" transform="translate(-64 -112)">
    <circle id="Ellipse_724" data-name="Ellipse 724" cx="3.108" cy="3.108" r="3.108" transform="translate(70.829 117.702)" fill="#0c8040"/>
    <path id="Path_19873" data-name="Path 19873" d="M82.3,114.595H79.475a.825.825,0,0,1-.621-.292c-1.47-1.719-2.024-2.3-2.624-2.3H71.8c-.606,0-1.2.584-2.676,2.308a.809.809,0,0,1-.616.286H68.3v-.432a.425.425,0,0,0-.414-.432H66.541a.425.425,0,0,0-.414.432v.432h-.388A1.709,1.709,0,0,0,64,116.254v9.513a1.832,1.832,0,0,0,1.734,1.8H82.3a1.7,1.7,0,0,0,1.579-1.8v-9.513A1.578,1.578,0,0,0,82.3,114.595Zm-8.151,10.832a4.625,4.625,0,1,1,4.213-4.4A4.53,4.53,0,0,1,74.144,125.426Zm4.761-7.7a.7.7,0,1,1,.673-.7A.687.687,0,0,1,78.905,117.729Z" transform="translate(0 0)" fill="#0c8040"/>
  </g>
</svg>
