<svg xmlns="http://www.w3.org/2000/svg" width="8.482" height="21.85" viewBox="0 0 8.482 21.85">
  <g id="Group_3771" data-name="Group 3771" transform="translate(0.519 0.5)">
    <g id="Group_3600" data-name="Group 3600" transform="translate(0 0)">
      <path id="Path_19925" data-name="Path 19925" d="M354.941,66.57a10.168,10.168,0,0,1-2.5-.244s-1.017-.419-.118-.553a10.132,10.132,0,0,0,2.652-1.294V57.457s-2.843-2.691-3.373-3.259a2.353,2.353,0,0,1-.317-1.728l1.149-6.724,2.541-.023h-.021l2.541.023,1.15,6.724a2.353,2.353,0,0,1-.317,1.728c-.53.568-3.373,3.259-3.373,3.259v7.022a10.132,10.132,0,0,0,2.652,1.294c.9.134-.118.553-.118.553a10.181,10.181,0,0,1-2.5.244" transform="translate(-351.238 -45.724)" fill="none" stroke="#9a9a9a" stroke-miterlimit="10" stroke-width="1"/>
    </g>
  </g>
</svg>
