<svg xmlns="http://www.w3.org/2000/svg" width="25.739" height="26.53" viewBox="0 0 25.739 26.53">
  <path id="Path_20401" data-name="Path 20401" d="M137.864,455.6l2.217,0a1.213,1.213,0,0,1,1.214,1.212l.007,5.73a1.355,1.355,0,0,0,1.355,1.353h3.685a1.355,1.355,0,0,0,1.355-1.355v-9.92h1.323a1.214,1.214,0,0,0,.875-2.055l-11.526-12a.668.668,0,0,0-.965,0l-11.525,11.993a1.214,1.214,0,0,0,.875,2.055h1.324v9.92a1.354,1.354,0,0,0,1.354,1.355h3.686a1.354,1.354,0,0,0,1.354-1.353l.007-5.73a1.214,1.214,0,0,1,1.214-1.212l2.217,0" transform="translate(-125.017 -437.862)" fill="none" stroke="#9fcd4f" stroke-miterlimit="10" stroke-width="1"/>
</svg>
