<svg xmlns="http://www.w3.org/2000/svg" xmlns:xlink="http://www.w3.org/1999/xlink" width="17.391" height="20" viewBox="0 0 17.391 20">
  <defs>
    <clipPath id="clip-path">
      <rect id="Rectangle_3196" data-name="Rectangle 3196" width="17.391" height="20" transform="translate(0.008)" fill="#0c8040"/>
    </clipPath>
  </defs>
  <g id="_notification" data-name=" notification" transform="translate(-0.008)" clip-path="url(#clip-path)">
    <path id="Path_20369" data-name="Path 20369" d="M7.161,18.064c-1.594,0-4.212-.027-5.426-.188a1.742,1.742,0,0,1-1.081-.45c-.914-.943-.248-2.03.4-3.082a9.913,9.913,0,0,0,.835-1.565,7.459,7.459,0,0,0,.5-2.212,24.391,24.391,0,0,1,.689-3.753C4.1,2.8,8.33,2.345,8.373,2.34h.143c.043,0,4.265.459,5.291,4.474a24.172,24.172,0,0,1,.689,3.753,7.411,7.411,0,0,0,.518,2.212,9.907,9.907,0,0,0,.833,1.565c.644,1.052,1.31,2.139.4,3.082a1.738,1.738,0,0,1-1.081.45c-1.722.229-6.249.187-6.715.181C8.31,18.059,7.824,18.064,7.161,18.064ZM8.449,3.347a5.17,5.17,0,0,0-4.37,3.711,23.311,23.311,0,0,0-.668,3.62,8.439,8.439,0,0,1-.561,2.461,10.774,10.774,0,0,1-.913,1.723c-.646,1.054-.87,1.519-.525,1.872.055.057.153.1.472.143,1.615.217,6.087.178,6.543.168h.045c.461,0,4.933.042,6.543-.168.317-.042.415-.086.472-.143.344-.353.112-.818-.534-1.872a10.772,10.772,0,0,1-.913-1.723,8.43,8.43,0,0,1-.56-2.461,23.6,23.6,0,0,0-.67-3.62A5.168,5.168,0,0,0,8.449,3.347Z" transform="translate(-0.026 -0.305)" fill="#0c8040"/>
    <path id="Path_20370" data-name="Path 20370" d="M9.331,22.735a3,3,0,0,1-2.077-.827.413.413,0,0,1,0-.59.438.438,0,0,1,.6-.01,2.143,2.143,0,0,0,2.975-.029.438.438,0,0,1,.6,0,.413.413,0,0,1,.01.59,2.957,2.957,0,0,1-.968.643A3.015,3.015,0,0,1,9.331,22.735Z" transform="translate(-0.929 -2.76)" fill="#0c8040"/>
    <path id="Path_20371" data-name="Path 20371" d="M11.145,3.2a.436.436,0,0,1-.3-.123.415.415,0,0,1-.126-.3,1.312,1.312,0,0,0-.059-.557,1.336,1.336,0,0,0-.286-.485,1.376,1.376,0,0,0-.464-.329,1.408,1.408,0,0,0-1.121,0,1.376,1.376,0,0,0-.464.329,1.337,1.337,0,0,0-.286.485,1.314,1.314,0,0,0-.059.557.415.415,0,0,1-.126.3.438.438,0,0,1-.609,0,.415.415,0,0,1-.126-.3,2.136,2.136,0,0,1,.113-.89A2.175,2.175,0,0,1,7.7,1.12,2.238,2.238,0,0,1,8.445.6a2.289,2.289,0,0,1,1.8,0,2.238,2.238,0,0,1,.748.521,2.175,2.175,0,0,1,.47.771,2.134,2.134,0,0,1,.113.89.415.415,0,0,1-.126.3A.436.436,0,0,1,11.145,3.2Z" transform="translate(-0.926 -0.054)" fill="#0c8040"/>
  </g>
</svg>
