<svg width="17" height="16" viewBox="0 0 17 16" fill="none" xmlns="http://www.w3.org/2000/svg">
<path d="M7.12706 15.759C5.53306 15.759 2.91506 15.732 1.70106 15.571C1.2996 15.5502 0.917676 15.3912 0.62006 15.121C-0.29394 14.178 0.37206 13.091 1.02006 12.039C1.3446 11.5433 1.62405 11.0195 1.85506 10.474C2.1335 9.76643 2.30211 9.02048 2.35506 8.26197C2.48637 6.9949 2.71674 5.74006 3.04406 4.50897C4.06606 0.494973 8.29606 0.0399731 8.33906 0.0349731H8.48206C8.52506 0.0349731 12.7471 0.493973 13.7731 4.50897C14.1013 5.73986 14.3316 6.99477 14.4621 8.26197C14.52 9.02155 14.6947 9.76764 14.9801 10.474C15.2104 11.0195 15.4892 11.5432 15.8131 12.039C16.4571 13.091 17.1231 14.178 16.2131 15.121C15.9156 15.3915 15.5336 15.5505 15.1321 15.571C13.4101 15.8 8.88306 15.758 8.41706 15.752C8.27606 15.754 7.79006 15.759 7.12706 15.759ZM8.41506 1.04197C7.40178 1.16037 6.44617 1.5759 5.66855 2.23625C4.89094 2.89661 4.32607 3.77226 4.04506 4.75297C3.72732 5.94015 3.50396 7.15058 3.37706 8.37297C3.31449 9.21679 3.12538 10.0464 2.81606 10.834C2.56443 11.4347 2.25885 12.0114 1.90306 12.557C1.25706 13.611 1.03306 14.076 1.37806 14.429C1.43306 14.486 1.53106 14.529 1.85006 14.572C3.46506 14.789 7.93706 14.75 8.39306 14.74H8.43806C8.89906 14.74 13.3711 14.782 14.9811 14.572C15.2981 14.53 15.3961 14.486 15.4531 14.429C15.7971 14.076 15.5651 13.611 14.9191 12.557C14.5633 12.0114 14.2577 11.4347 14.0061 10.834C13.697 10.0464 13.5082 9.21676 13.4461 8.37297C13.3173 7.1507 13.0933 5.94035 12.7761 4.75297C12.4959 3.77342 11.9324 2.89853 11.1565 2.23826C10.3806 1.57799 9.42682 1.16179 8.41506 1.04197Z" fill="#0C8040"/>
</svg>
