<svg width="27" height="27" viewBox="0 0 27 27" fill="none" xmlns="http://www.w3.org/2000/svg">
<path d="M13.3261 17.782H15.543C15.7023 17.7819 15.8601 17.8131 16.0073 17.8739C16.1545 17.9348 16.2883 18.024 16.4011 18.1365C16.5138 18.2491 16.6033 18.3827 16.6643 18.5298C16.7254 18.677 16.7569 18.8347 16.7571 18.994L16.7641 24.724C16.7646 25.083 16.9076 25.4271 17.1616 25.6808C17.4157 25.9345 17.76 26.077 18.1191 26.077H21.8041C22.1634 26.077 22.5081 25.9342 22.7622 25.6801C23.0163 25.426 23.1591 25.0814 23.1591 24.722V14.802H24.4821C24.72 14.8019 24.9528 14.7318 25.1512 14.6006C25.3497 14.4693 25.5053 14.2825 25.5985 14.0636C25.6917 13.8446 25.7186 13.6031 25.6756 13.369C25.6327 13.1349 25.5219 12.9186 25.3571 12.747L13.8311 0.746979C13.7687 0.681851 13.6938 0.630013 13.6109 0.594604C13.5279 0.559196 13.4387 0.540955 13.3486 0.540955C13.2584 0.540955 13.1692 0.559196 13.0862 0.594604C13.0033 0.630013 12.9284 0.681851 12.8661 0.746979L1.34105 12.74C1.17619 12.9116 1.06541 13.1279 1.02248 13.362C0.97955 13.5961 1.00637 13.8376 1.0996 14.0566C1.19283 14.2755 1.34836 14.4623 1.54686 14.5935C1.74536 14.7248 1.97807 14.7949 2.21605 14.795H3.54006V24.715C3.53993 24.8929 3.57485 25.069 3.64284 25.2334C3.71083 25.3978 3.81054 25.5472 3.93628 25.673C4.06203 25.7989 4.21133 25.8987 4.37567 25.9668C4.54001 26.0349 4.71617 26.07 4.89406 26.07H8.58005C8.93898 26.07 9.28323 25.9275 9.53713 25.6738C9.79102 25.4201 9.93379 25.0759 9.93405 24.717L9.94106 18.987C9.94159 18.6653 10.0697 18.3571 10.2973 18.1299C10.5249 17.9026 10.8334 17.775 11.155 17.775H13.3721" stroke="#9FCD4F" stroke-miterlimit="10"/>
</svg>
