<svg xmlns="http://www.w3.org/2000/svg" width="91.134" height="91.134" viewBox="0 0 91.134 91.134">
  <path id="Icon_metro-qrcode" data-name="Icon metro-qrcode" d="M31.05,7.624H8.267V30.407H31.05Zm5.7-5.7V36.1H2.571V1.928ZM13.962,13.32H25.354V24.711H13.962Zm74.046-5.7H65.225V30.407H88.009Zm5.7-5.7V36.1H59.529V1.928H93.7ZM70.921,13.32H82.313V24.711H70.921ZM31.05,64.582H8.267V87.366H31.05Zm5.7-5.7V93.062H2.571V58.887ZM13.962,70.278H25.354V81.67H13.962ZM42.442,1.928h5.7v5.7h-5.7Zm5.7,5.7h5.7v5.7h-5.7Zm-5.7,5.7h5.7v5.7h-5.7Zm5.7,5.7h5.7v5.7h-5.7Zm-5.7,5.7h5.7v5.7h-5.7Zm5.7,5.7h5.7v5.7h-5.7Zm-5.7,5.7h5.7v5.7h-5.7Zm0,11.392h5.7v5.7h-5.7Zm5.7,5.7h5.7v5.7h-5.7Zm-5.7,5.7h5.7v5.7h-5.7Zm5.7,5.7h5.7v5.7h-5.7Zm-5.7,5.7h5.7v5.7h-5.7Zm5.7,5.7h5.7v5.7h-5.7Zm-5.7,5.7h5.7v5.7h-5.7Zm5.7,5.7h5.7v5.7h-5.7ZM88.009,47.495h5.7v5.7h-5.7Zm-79.742,0h5.7v5.7h-5.7Zm5.7-5.7h5.7v5.7h-5.7Zm-11.392,0h5.7v5.7h-5.7Zm22.783,0h5.7v5.7h-5.7Zm5.7,5.7h5.7v5.7h-5.7Zm5.7-5.7h5.7v5.7h-5.7Zm17.088,5.7h5.7v5.7h-5.7Zm5.7-5.7h5.7v5.7h-5.7Zm5.7,5.7h5.7v5.7h-5.7Zm5.7-5.7h5.7v5.7h-5.7Zm5.7,5.7h5.7v5.7h-5.7Zm5.7-5.7h5.7v5.7h-5.7Zm5.7,17.088h5.7v5.7h-5.7Zm-34.175,0h5.7v5.7h-5.7Zm5.7-5.7h5.7v5.7h-5.7Zm5.7,5.7h5.7v5.7h-5.7Zm11.392,0h5.7v5.7h-5.7Zm5.7-5.7h5.7v5.7h-5.7Zm5.7,17.088h5.7v5.7h-5.7Zm-34.175,0h5.7v5.7h-5.7Zm5.7-5.7h5.7v5.7h-5.7Zm11.392,0h5.7v5.7h-5.7Zm5.7,5.7h5.7v5.7h-5.7Zm5.7-5.7h5.7v5.7h-5.7Zm5.7,17.088h5.7v5.7h-5.7Zm-28.479-5.7h5.7v5.7h-5.7Zm5.7,5.7h5.7v5.7h-5.7Zm5.7-5.7h5.7v5.7h-5.7Zm5.7,5.7h5.7v5.7h-5.7Zm-17.088,5.7h5.7v5.7h-5.7Zm11.392,0h5.7v5.7h-5.7Zm11.392,0h5.7v5.7h-5.7Z" transform="translate(-2.571 -1.928)"/>
</svg>
